<?xml version="1.0" encoding="utf-8"?>
<!-- Generator: Adobe Illustrator 14.0.0, SVG Export Plug-In . SVG Version: 6.00 Build 43363)  -->
<!DOCTYPE svg PUBLIC "-//W3C//DTD SVG 1.1//EN" "http://www.w3.org/Graphics/SVG/1.1/DTD/svg11.dtd">
<svg version="1.1" id="Ebene_1" xmlns="http://www.w3.org/2000/svg" xmlns:xlink="http://www.w3.org/1999/xlink" x="0px" y="0px"
	 width="1024px" height="253px" viewBox="0 0 1024 253" enable-background="new 0 0 1024 253" xml:space="preserve">
<polygon fill="#1392CC" points="386.722,-0.357 386.722,252.658 454.745,252.658 454.745,87.954 537.099,252.658 627.796,252.658 
	707.174,87.355 707.174,252.658 775.782,252.658 775.782,-0.357 670.585,-0.357 582.447,177.467 491.151,-0.357 "/>
<polyline fill="#1392CC" points="1020.464,-0.357 915.431,-0.357 776.386,130.921 929.748,252.658 1024.029,252.658 
	870.686,126.144 1020.464,-0.357 "/>
<path fill="#1392CC" d="M142.653,129.732h87.716l-45.349-77.577L142.653,129.732z M144.445-0.21H235.6l150.528,252.869h-85.632
	l-39.086-60.873H118.196L84.77,252.658H0.034L144.445-0.21z"/>
</svg>
